<?xml version="1.0" encoding="UTF-8" standalone="no"?>
<svg width="1922px" height="654px" viewBox="0 0 1922 654" version="1.1" xmlns="http://www.w3.org/2000/svg" xmlns:xlink="http://www.w3.org/1999/xlink" xmlns:sketch="http://www.bohemiancoding.com/sketch/ns">
    <!-- Generator: Sketch 3.3.1 (12002) - http://www.bohemiancoding.com/sketch -->
    <title>relational-problems</title>
    <desc>Created with Sketch.</desc>
    <defs></defs>
    <g id="Page-1" stroke="none" stroke-width="1" fill="none" fill-rule="evenodd" sketch:type="MSPage">
        <g id="Artboard-2" sketch:type="MSArtboardGroup" transform="translate(-101.000000, -101.000000)">
            <g id="Fill-3-+-Fill-4-+-Fill-5" sketch:type="MSLayerGroup" transform="translate(1118.000000, 270.000000)" fill="#B94850">
                <path d="M162.307,271.252 C158.005,270.414 156.677,265.578 153.853,262.756 C153.468,260.344 154.672,260.082 155.962,259.92 L160.192,259.92 C155.947,262.441 161.131,272.326 162.307,265.586 C164.755,257.494 164.755,270.16 162.307,271.252 L162.307,271.252 Z M142.427,282.457 C147.471,289.877 130.98,277.238 138.842,278.871 C140.301,279.17 141.019,276.236 143.043,278.258 C144.898,280.113 141.992,281.811 142.427,282.457 L142.427,282.457 Z M122.156,265.586 L128.488,265.586 C129.839,271.768 122.507,274.604 130.607,274.086 C128.48,281.217 121.261,271.834 122.156,265.586 L122.156,265.586 Z M73.236,276.41 C72.648,276.434 72.048,276.572 71.436,276.92 C71.596,275.785 72.07,274.996 72.735,274.463 C72.409,272.918 72.248,271.416 72.293,270.061 C73.023,269.924 73.698,269.859 74.332,269.85 C74.903,267.73 75.121,268.283 75.169,269.875 C78.68,270.139 80.658,272.438 82.25,275.432 C83.134,275.938 83.816,276.465 84.111,276.92 C83.951,277.447 83.784,277.893 83.611,278.277 C85.566,282.658 87.458,287.549 92.022,289.789 C81.853,291.561 75.505,283.867 73.236,276.41 L73.236,276.41 Z M60.868,274.086 C61.003,274.041 61.115,274.035 61.241,274 C59.522,270.012 68.762,270.492 70.027,275.051 C67.171,277.309 65.323,272.617 62.62,273.814 C66.942,273.943 65.618,281.648 71.436,279.758 C70.933,284.705 59.517,280.955 60.868,274.086 L60.868,274.086 Z M172.431,174.072 C173.137,174.291 173.872,174.488 174.71,174.639 C174.295,173.342 173.082,171.455 171.925,169.373 C172.968,168.342 174.772,168.078 176.868,170.029 C176.593,171.797 174.378,172.543 174.71,174.639 C173.739,174.623 173.004,174.406 172.431,174.072 L172.431,174.072 Z M172.136,157.925 C172.255,158.632 172.899,159.044 173.701,159.221 C172.816,159.803 171.689,159.667 170.458,159.395 C170.867,158.859 171.396,158.356 172.136,157.925 L172.136,157.925 Z M170.029,165.307 C169.719,164.383 169.517,163.484 169.483,162.607 C169.649,162.584 169.815,162.557 169.976,162.531 C170.544,163.752 170.467,164.625 170.029,165.307 L170.029,165.307 Z M162.218,168.008 C162.489,166.234 164.706,165.49 164.378,163.396 C164.668,163.354 164.968,163.305 165.263,163.258 C165.152,164.705 165.24,166.092 165.554,167.387 C164.462,167.607 163.309,167.785 162.218,168.008 L162.218,168.008 Z M140.466,131.003 C134.114,123.789 145.49,129.506 146.504,127.566 C152.42,133.375 141.047,127.651 140.466,131.003 L140.466,131.003 Z M139.981,149.672 C140.828,152.072 141.886,154.228 140.306,154.302 C141.01,154.052 136.301,151.525 136.919,152.665 C136.457,151.808 132.174,143.504 141.228,143.447 C138.532,144.398 139.071,147.03 139.908,149.463 C140.412,149.103 141.121,148.61 142.113,147.926 C152.997,141.431 143.326,147.701 139.981,149.672 L139.981,149.672 Z M124.848,167.357 C126.659,160.486 130.161,171.172 133.894,170.238 C130.339,178.883 128.586,166.408 124.848,167.357 L124.848,167.357 Z M118.824,146.9 C122.138,146.735 123.741,145.675 124.103,143.949 C128.902,138.284 122.692,154.546 126.679,160.66 C122.029,158.139 120.756,152.187 118.824,146.9 L118.824,146.9 Z M113.866,151.943 C118.139,151.929 112.196,161.2 121.081,161.524 C116.99,169.154 107.554,155.621 113.866,151.943 L113.866,151.943 Z M121.973,122.687 C124.147,123.797 123.644,124.927 123.004,126.071 C124.729,127.8 125.654,126.983 126.543,126.037 C130.152,130.853 116.68,127.986 113.441,129.532 C105.339,129.463 120.745,128.44 121.973,122.687 L121.973,122.687 Z M140.736,137.109 C141.513,136.991 142.289,136.872 143.066,136.754 C143.281,138.142 143.493,139.53 143.712,140.926 C141.838,141.214 139.976,141.503 138.104,141.789 C138.025,141.258 137.944,140.729 137.862,140.199 C139.259,140.867 141.148,141.169 143.712,140.926 C141.909,139.822 141.08,138.511 140.736,137.109 L140.736,137.109 Z M177.637,137.834 C184.653,137.079 179.546,144.789 178.925,146.188 C171.908,146.955 177.02,139.238 177.637,137.834 L177.637,137.834 Z M188.711,172.479 C188.173,168.992 187.637,165.512 187.104,162.037 C197.666,161.962 186.881,168.502 194.313,171.617 C201.84,171.139 189.893,160.317 201.425,161.968 C202.253,167.516 204.324,173.73 200.88,177.016 C213.936,178.334 202.425,196.838 217.457,191.574 C216.631,194.328 214.537,196.414 209.699,197.043 C213.173,207.838 201.722,210.705 204.841,221.311 C197.145,216.77 196.457,209.045 200.076,202.77 C201.129,204.418 203.053,205.736 205.386,206.262 C203.435,203.531 206.783,195.42 201.395,196.195 C200.353,193.713 202.97,189.844 203.455,193.732 C203.762,196.203 206.847,184.211 200.332,192.07 C195.786,188.598 189.794,179.334 194.632,173.703 C193.183,166.354 186.061,179.568 185.91,172.91 C181.601,171.004 185.546,172.135 188.711,172.479 L188.711,172.479 Z M220.483,173.994 C227.889,171.295 226.756,177.277 232.326,176.443 C232.256,178.959 227.496,178.994 224.25,179.828 C217.412,180.035 227.272,189.096 216.81,187.385 C217.752,182.77 222.838,180.357 220.483,173.994 L220.483,173.994 Z M220.884,140.296 C221.146,139.732 221.366,139.142 221.463,138.493 C223.348,137.936 224.791,139.47 225.368,141.42 C226.028,141.873 226.689,142.44 227.35,143.114 C226.203,145.927 225.042,146.921 223.871,146.982 C222.965,147.538 221.686,147.725 219.953,147.28 C219.431,146.107 219.294,145.139 219.362,144.284 C218.635,143.65 217.911,143.052 217.187,142.693 C218.414,141.332 219.648,140.563 220.884,140.296 L220.884,140.296 Z M233.741,200.592 C235.713,202.652 237.023,203.063 237.773,202.662 C238.977,204.264 239.962,206.209 239.962,207.344 C237.108,206.223 235.132,204.195 233.39,201.945 C233.433,201.32 233.567,200.895 233.741,200.592 L233.741,200.592 Z M240.716,157.476 C240.326,161.063 238.923,163.643 235.311,164.045 C233.41,158.217 237.476,158.25 240.716,157.476 L240.716,157.476 Z M229.095,220.447 C229.65,218.992 229.357,217.158 226.92,215.764 C231.922,215.512 233.861,218.377 233.811,223.26 C231.731,222.838 230.216,221.844 229.095,220.447 L229.095,220.447 Z M207.524,259.934 C203.244,261.104 206.266,256.879 208.509,254.945 C204.74,246.875 214.306,258.439 207.524,259.934 L207.524,259.934 Z M191.686,254.729 C195.436,252.553 198.931,252.086 201.888,255.297 C197.594,261.273 194.74,257.318 191.686,254.729 L191.686,254.729 Z M213.025,276.92 C206.753,274.133 202.596,272.91 200.348,271.252 C198.922,270.936 197.793,271.232 196.855,271.865 C198.091,273.127 199.39,275.111 200.624,278.09 C199.039,278.082 197.689,277.924 196.531,277.666 C196.007,279.986 192.302,282.289 192.179,278.156 C191.046,279.518 189.777,279.768 187.666,276.92 C188.938,275.646 189.95,274.025 190.908,272.334 C190.996,271.572 191.359,270.914 191.931,270.502 C194.546,265.779 197.314,261.264 204.568,262.756 C203.787,272.301 213.458,267.842 213.025,276.92 L213.025,276.92 Z M180.95,177.951 C172.767,175.248 187.439,177.5 187.201,181.266 C195.381,183.963 180.714,181.713 180.95,177.951 L180.95,177.951 Z M92.195,135.573 C82.458,140.242 97.171,143.648 94.517,150.627 C91.155,149.689 88.344,144.438 87.404,149.157 C81.983,147.612 88.36,132.933 91.034,128.054 C90.839,125.004 89.751,122.308 88.218,119.829 C86.002,122.841 82.041,126.631 81.682,129.107 C83.046,132.721 79.691,133.804 79.2,131.633 C79.22,125.68 84.055,122.293 86.859,117.826 C84.423,114.523 81.36,111.58 78.875,108.641 C76.779,110.837 71.09,105.902 76.173,104.966 C74.576,102.305 73.829,99.534 74.791,96.401 C75.224,99.189 76.826,102.062 79.053,104.844 C79.195,104.851 79.321,104.851 79.47,104.863 C79.5,105.06 79.513,105.236 79.531,105.417 C84.227,111.041 91.373,116.233 96.599,119.497 C98.675,129.954 92.647,134.449 100.08,142.072 C97.855,150.38 95.69,135.458 92.195,135.573 L92.195,135.573 Z M71.988,122.044 C62.222,118.518 80.534,112.09 71.988,122.044 L71.988,122.044 Z M78.166,46.333 C67.956,44.653 77.896,31.69 78.166,46.333 L78.166,46.333 Z M80.734,102.125 C80.489,101.976 80.255,101.792 80.054,101.502 C80.007,101.425 79.96,101.34 79.921,101.254 C80.191,101.549 80.469,101.833 80.734,102.125 L80.734,102.125 Z M66.086,27.428 C62.245,25.745 58.266,24.5 54.522,24.165 C57.569,20.507 64.065,21.69 70.315,24.813 C71.061,24.46 71.837,24.07 72.59,23.615 C72.539,23.445 72.48,23.275 72.414,23.102 C73.243,22.695 73.9,22.438 74.417,22.304 C76.074,20.863 77.349,18.852 77.509,15.774 C85.522,13.634 82.644,29.302 88.412,22.683 C87.946,19.896 91.147,15.573 93.266,23.592 C91.932,24.285 90.927,24.501 90.178,24.423 C90.12,24.801 90.032,25.201 89.938,25.609 C88.841,27.796 89.911,28.404 91.103,28.944 C89.603,34.916 83.562,27.925 80.165,28.485 C79.788,25.98 79.44,23.439 80.693,19.745 C78.979,20.253 77.471,21.342 76.031,22.628 C76.543,23.662 75.195,26.27 75.066,27.604 C75.415,27.834 75.754,28.07 76.089,28.31 C76.514,28.173 77.085,27.892 77.865,27.409 C77.815,28.242 77.72,28.903 77.592,29.434 C79.857,31.2 81.818,33.1 83.19,34.931 C76.346,40.374 77.046,33.387 73.629,31.342 C72.182,30.472 70.662,29.625 69.099,28.837 C68.239,29.391 67.345,29.861 66.376,30.099 C65.651,28.945 65.653,28.113 66.086,27.428 L66.086,27.428 Z M48.438,50.458 C50.974,49.092 53.927,49.101 57.795,52.068 C55.259,53.439 52.302,53.436 48.438,50.458 L48.438,50.458 Z M38.191,88.771 C38.254,84.947 42.281,79.759 36.26,76.244 C43.978,66.39 51.579,88.853 38.191,88.771 L38.191,88.771 Z M33.556,95.9 C34.332,93.411 33.429,88.923 32.12,84.833 C38.859,88.271 45.509,93.712 33.556,95.9 L33.556,95.9 Z M97.459,15.038 C98.008,14.577 98.666,14.136 99.481,13.719 C98.94,15.256 99.447,16.962 100.117,18.693 C100.493,18.6 100.906,18.195 101.384,17.32 C102.514,19.445 102.161,20.669 101.096,21.19 C102.093,23.936 102.43,26.58 98.532,28.542 C98.649,30.427 98.737,32.32 102.185,33.035 C97.018,38.093 90.462,29.029 95.967,24.439 C96.157,24.505 96.302,24.59 96.462,24.669 C95.91,23.146 95.401,21.628 95.28,20.176 C94.128,19.497 93.102,18.586 92.478,17.5 C95.009,11.707 96.354,12.924 97.459,15.038 L97.459,15.038 Z M94.611,49.902 C86.836,50.557 99.416,46.399 92.545,41.392 C92.824,41.249 93.104,41.099 93.383,40.955 C90.287,41.456 89.007,38.181 87.386,35.609 C91.574,34.658 95.017,35.25 96.892,39.121 C97.316,38.899 97.737,38.681 98.157,38.458 C98.097,42.81 95.787,46.085 94.611,49.902 L94.611,49.902 Z M88.33,110.294 C88.388,110.361 88.438,110.417 88.497,110.484 C88.441,110.492 88.383,110.494 88.33,110.501 C88.33,110.425 88.328,110.369 88.33,110.294 L88.33,110.294 Z M25.699,82.145 C26.57,82.408 27.695,82.822 28.927,83.341 C29.232,84.793 29.547,86.189 29.86,87.533 C27.958,86.271 26.014,85.035 25.699,82.145 L25.699,82.145 Z M123.569,16.694 C124.354,18.198 125.139,19.692 125.92,21.196 C123.134,22.119 123.532,23.558 124.08,25.021 C118.695,28.97 114.32,17.075 123.569,16.694 L123.569,16.694 Z M129.414,40.95 C128.436,37.477 122.237,37.776 125.908,30.942 C131.651,30.97 132.821,34.302 129.414,40.95 L129.414,40.95 Z M163.05,39.617 C165.028,40.969 162.733,45.42 165.391,46.289 C164.046,49.236 162.898,47.16 163.369,45.656 C159.863,44.181 158.08,47.635 154.464,45.83 C154.338,35.238 161.825,46.348 163.05,39.617 L163.05,39.617 Z M171.444,48.185 C174.866,47.161 175.476,50.34 174.681,53.271 C179.999,51.906 184.483,52.272 188.287,54.052 C188.612,52.507 189.841,51.261 192.487,50.947 C198.099,51.745 195.402,53.882 194.226,56.767 C195.382,56.686 196.535,56.587 197.653,56.4 C197.337,58.609 196.652,59.763 195.755,60.315 C197.012,61.963 198.157,63.829 199.211,65.914 C196.658,65.966 194.296,65.627 192.07,65.012 C192.312,66.101 192.227,67.425 191.405,69.284 C187.364,68.016 183.335,66.754 179.307,65.492 C180.142,63.205 181.206,61.57 182.42,60.363 C181.305,59.613 180.212,58.81 179.131,57.987 C179.248,58.543 179.304,59.13 179.276,59.724 C178.013,58.044 176.657,56.555 175.106,55.496 C175.224,55.343 175.345,55.214 175.467,55.107 C175.101,54.811 174.733,54.515 174.366,54.22 C173.309,56.959 171.063,59.009 168.902,56.294 C169.75,53.59 170.597,50.886 171.444,48.185 L171.444,48.185 Z M177.546,46.835 C189.796,47.66 173.216,57.129 177.546,46.835 L177.546,46.835 Z M174.353,65.195 C173.684,64.492 173.376,63.841 173.332,63.238 C173.343,63.268 173.362,63.296 173.375,63.323 C175.258,62.224 176.362,62.758 177.153,63.913 C176.442,64.476 175.52,64.922 174.353,65.195 L174.353,65.195 Z M249.421,231.537 C249.311,231.658 249.258,231.773 249.16,231.891 C249.152,231.797 249.125,231.701 249.12,231.604 C249.228,231.584 249.31,231.559 249.421,231.537 L249.421,231.537 Z M172.646,288.58 C172.569,288.512 172.487,288.439 172.409,288.371 C173.9,287.5 175.35,286.924 176.746,286.725 C176.772,286.355 175.741,285.977 172.879,285.424 C173.35,281.342 179.175,284.436 179.208,279.758 C184.98,277.691 183.47,285.385 187.666,285.424 C185.799,285.879 183.949,287.094 182.13,288.518 C182.288,288.664 182.445,288.777 182.595,288.941 C182.404,289.209 182.216,289.447 182.029,289.676 C188.815,287.939 195.122,285.799 200.937,283.244 C210.487,279.051 218.912,273.814 226.234,267.555 C225.681,265.109 224.105,262.811 221.668,260.643 C226.1,258.561 230.927,259.764 231.041,263.141 C235.629,258.615 239.722,253.633 243.301,248.172 C243.672,247.605 244.022,247.033 244.379,246.463 C242.992,245.416 242.655,243.301 239.83,243.717 C239.237,240.623 255.999,238.123 241.983,239.104 C241.771,237.709 241.558,236.326 241.343,234.93 C242.964,233.791 244.649,232.686 247.129,232.016 C247.374,232.621 247.687,233.15 248.237,233.432 C247.71,234.898 248.199,236.27 249.42,237.385 C255.436,224.988 258.458,211.742 258.458,197.645 C258.458,185.178 256.013,173.662 251.134,163.107 C247.715,163.092 245.001,162.374 244.43,159.14 C245.066,157.499 246.387,156.928 247.893,156.863 C247.627,156.4 247.366,155.935 247.089,155.477 C242.799,148.365 237.054,141.908 229.859,136.103 C229.493,137.488 228.719,136.439 228.07,134.702 C222.975,130.794 217.209,127.191 210.752,123.896 C194.103,115.417 166.54,107.025 128.062,98.731 C127.101,98.531 126.162,98.33 125.244,98.127 C125.728,98.833 126.075,99.678 126.069,100.879 C119.183,106.591 123.176,100.393 121.482,97.259 C119.563,96.799 117.754,96.335 116.056,95.867 C115.405,95.975 114.701,96.125 113.902,96.344 C113.913,95.957 114.039,95.633 114.249,95.353 C111.279,94.486 108.678,93.601 106.444,92.7 C106.965,95.257 105.793,97.822 101.919,99.817 C102.6,100.626 102.928,101.449 104.372,102.897 C104.995,103.52 105.73,104.005 106.516,104.421 C106.472,104.23 106.448,104.051 106.462,103.904 C110.149,102.894 111.157,104.605 111.89,106.594 C113.952,107.46 115.605,108.601 115.937,110.953 C116.014,110.952 116.075,110.968 116.157,110.963 C116.086,111 116.025,111.037 115.956,111.073 C115.968,111.173 115.993,111.259 116.001,111.365 C115.844,111.347 115.698,111.319 115.543,111.298 C103.246,118.029 111.068,124.806 102.57,134.44 C100.478,131.117 101.006,123.578 102.792,117.297 C102.94,116.788 107.93,116.939 108.394,116.434 C110.139,114.527 109.745,112.07 108.876,109.794 C105.879,108.784 103.241,107.404 100.882,105.737 C101.219,105.044 101.066,104.833 100.159,105.244 C100.013,105.133 99.876,105.014 99.731,104.902 C99.241,105.015 98.688,105.116 98.061,105.197 C98.256,104.799 98.399,104.373 98.515,103.933 C94.727,100.72 91.688,96.74 88.983,92.419 C84.206,84.722 97.343,101.084 97.307,101.437 C97.76,101.768 98.35,101.639 98.902,101.292 C99.117,97.743 98.642,93.83 101.729,91.798 C97.593,87.152 90.884,85.118 83.317,83.954 C86.016,81.808 89.924,81.594 93.771,82.548 C92.668,80.481 92.111,78.297 92.111,75.994 C92.111,70.925 93.863,66.497 97.302,62.677 C96.035,61.683 95.087,60.663 94.728,59.777 C97.106,58.879 98.847,59.031 100.516,59.689 C101.671,58.792 102.921,57.978 104.309,57.282 C107.324,52.377 120.034,49.907 129.892,48.281 C130.545,45.748 131.314,43.236 132.308,40.758 C134.389,40.33 135.557,40.738 135.982,41.517 C137.753,38.415 143.843,48.537 148.558,45.247 C148.4,46.361 148.164,47.219 147.869,47.886 C148.253,47.76 148.658,47.59 149.067,47.412 C149.211,50.867 147.829,54.078 147.962,57.529 C146.862,58.058 146.047,58.203 145.445,58.101 C147.93,59.298 150.218,60.708 152.257,62.392 C155.256,64.867 157.812,67.981 159.934,71.719 C165.474,73.018 171.082,72.786 175.593,70.272 C178.464,73.1 174.9,76.879 171.879,75.044 C172.325,79.601 177.15,80.996 180.264,83.615 C177.07,86.157 176.801,88.472 180.26,89.55 L183.036,89.388 C182.324,88.703 181.763,87.909 181.43,86.95 C182.934,80.98 188.974,87.966 192.369,87.409 C197.098,86.22 213.332,78.162 217.092,86.248 C216.835,86.781 216.528,87.167 216.204,87.446 L245.075,85.755 C245.581,85.168 246.082,84.566 246.541,83.844 C238.553,82.016 230.589,80.135 220.017,83.679 C218.292,79.442 213.842,80.862 212.294,76.252 C216.318,74.147 220.334,72.046 224.358,69.944 C221.001,78.306 234.323,80.446 245.315,73.314 C246.012,74.424 246.801,75.341 247.646,76.14 C242.908,51.389 232.046,32.958 215.027,20.907 C206.933,15.171 197.27,10.665 186.075,7.359 C184.65,9.401 181.004,9.257 181.425,13.116 C180.733,13.223 180.036,13.331 179.338,13.438 C181.074,10.972 179.617,8.099 178.766,5.424 C165.14,2.212 149.482,0.594 131.756,0.594 C107.686,0.594 87.772,3.046 72.019,7.95 C77.839,8.731 80.936,14.25 70.77,18.523 C71.975,15.535 71.435,12.256 69.536,8.768 C66.796,9.693 64.174,10.687 61.702,11.767 C59.542,12.71 57.453,13.702 55.431,14.734 C56.487,16.158 57.062,17.927 55.972,20.903 C54.23,19.371 52.682,18.094 51.31,16.97 C39.381,23.759 30.075,32.255 23.417,42.474 C14.932,55.495 10.688,69.33 10.688,83.963 C10.688,97.304 13.682,109.216 19.625,119.722 C23.001,120.382 27.038,120.352 31.162,119.313 C32.822,126.334 38.931,128.816 40.595,135.83 C38.108,134.896 35.84,133.75 33.654,132.511 C33.525,133.822 33.259,135.172 32.915,136.548 C33.776,137.362 34.652,138.168 35.563,138.958 C36.659,139.917 37.813,140.861 39.006,141.792 C39.42,140.41 40.09,139.184 40.982,138.333 C45.762,137.806 45.68,142.219 45.686,146.544 C62.44,157.45 86.59,166.453 118.153,173.545 C141.728,178.73 156.755,184.234 163.238,190.064 C169.714,195.895 172.953,202.504 172.953,209.883 C172.953,217.664 169.555,224.5 162.752,230.389 C155.947,236.289 146.263,239.234 133.696,239.234 C116.858,239.234 103.9,233.469 94.835,221.939 C89.264,214.816 85.569,204.449 83.756,190.844 L0,196.09 C2.46,224.855 13.019,248.563 31.677,267.217 C33.987,269.527 36.528,271.691 39.295,273.717 C39.954,271.805 40.811,269.684 40.076,269.143 C40.852,261.221 43.455,273.01 42.553,275.621 C42.46,275.68 42.379,275.729 42.291,275.783 C49.032,280.215 56.986,283.887 66.152,286.801 C69.333,285.598 72.431,284.953 74.982,288.02 C74.342,288.268 73.699,288.533 73.056,288.795 C89.412,293.061 109.166,295.199 132.339,295.199 C133.995,295.199 135.631,295.184 137.252,295.156 C137.529,294.123 137.946,293.281 138.514,292.641 C138.392,292.031 138.222,291.424 137.916,290.842 C139.108,289.279 141.177,289.664 142.796,290.896 C143.596,290.871 144.464,290.938 145.396,291.09 C145.822,292.791 145.878,293.994 145.681,294.859 C153.756,294.449 161.375,293.654 168.539,292.477 C168.803,290.588 170.725,289.408 172.646,288.58 L172.646,288.58 Z" id="Fill-3" sketch:type="MSShapeGroup"></path>
                <path d="M335.247,245.404 C334.626,245.73 334.001,246.057 333.375,246.383 C335.036,240.711 324.573,237.521 330.561,231.869 C332.576,240.771 334.044,241.479 336.929,234.936 C340.53,240.426 332.977,240.553 335.247,245.404 L335.247,245.404 Z M314.713,220.967 C322.023,220.73 321.583,226.92 330.053,232.207 C324.786,235.408 314.953,225.17 314.713,220.967 L314.713,220.967 Z M318.583,202.861 C318.894,202.814 319.207,202.764 319.518,202.717 C316.426,202.191 316.272,198.68 315.568,195.723 C319.838,196.174 322.906,197.846 323.432,202.115 C323.904,202.041 324.373,201.971 324.842,201.896 C323.38,205.996 320.137,208.35 317.791,211.582 C310.221,209.691 323.469,209.816 318.583,202.861 L318.583,202.861 Z M327.295,187.92 C327.454,188.045 327.564,188.172 327.689,188.299 C327.659,186.678 327.667,185.078 328.021,183.664 C327.15,182.648 326.473,181.457 326.235,180.227 C330.499,175.559 331.379,177.148 331.743,179.504 C332.412,179.244 333.177,179.041 334.082,178.91 C333.074,180.189 333.003,181.967 333.078,183.82 C333.465,183.855 333.987,183.605 334.722,182.932 C335.104,185.307 334.375,186.352 333.2,186.502 C333.256,189.422 332.721,192.033 328.399,192.631 C327.9,194.455 327.374,196.273 330.405,198.063 C323.881,201.184 320.604,190.486 327.295,187.92 L327.295,187.92 Z M336.218,191.457 C341.953,191.615 344.719,197.928 350.804,197.328 C347.552,195.352 348.7,187.365 355.921,189.502 C356.177,191.178 356.439,192.846 356.692,194.521 C354.389,194.502 353.844,195.418 353.737,196.568 C353.878,196.512 354.016,196.459 354.159,196.396 C352.068,205.418 331.698,197.213 336.218,191.457 L336.218,191.457 Z M351.495,144.186 C359.283,146.854 347.712,156.031 345.503,160.109 C346.833,162.521 348.816,160.861 350.565,160.663 C355.348,172.91 342.332,160.072 344.386,167.084 C335.095,161.271 350.281,151.2 351.495,144.186 L351.495,144.186 Z M354.25,62.81 C360.09,69.369 352.409,69.439 349.393,71.746 C347.531,67.097 349.616,64.338 354.25,62.81 L354.25,62.81 Z M361.623,57.234 C362.281,58.487 362.929,59.733 363.582,60.984 C361.042,61.043 358.49,61.161 355.067,63.042 C354.438,58.423 356.909,57.026 361.623,57.234 L361.623,57.234 Z M379.073,60.037 C373.438,61.326 369.762,58.539 366.643,54.609 C371.045,55.885 376.294,55.403 379.073,60.037 L379.073,60.037 Z M376.674,27.396 C384.06,25.684 375.681,33.902 379.156,37.618 C370.167,38.574 378.552,30.349 376.674,27.396 L376.674,27.396 Z M389.087,38.205 C383.749,42.888 383.371,56.639 376.171,54.546 C371.34,49.322 387.065,41.744 375.983,45.055 C374.505,41.222 381.105,41.261 378.966,37.102 C383.122,32.596 385.35,40.115 389.087,38.205 L389.087,38.205 Z M395.137,51.255 C395.323,51.099 395.501,50.936 395.653,50.761 C394.876,48.441 393.679,48.773 392.467,49.224 C391.384,36.658 398.941,57.251 402.58,50.335 C403.641,53.977 401.351,56.011 402.778,59.827 C400.842,60.652 399.381,58.515 397.867,56.734 C393.185,57.144 389.952,54.546 387.16,51.037 C390.006,50.719 392.833,50.445 395.137,51.255 L395.137,51.255 Z M382.177,70.595 C389.394,71.92 389.507,65.174 397.909,68.764 C398.369,75.44 384.955,79.041 382.177,70.595 L382.177,70.595 Z M450.712,229.297 C450.671,229.336 450.626,229.371 450.588,229.41 C450.542,229.348 450.507,229.305 450.466,229.242 C450.552,229.262 450.626,229.277 450.712,229.297 L450.712,229.297 Z M453.032,212.607 C455.831,212.439 455.902,213.307 459.03,213.793 C464.23,214.594 469.761,209.412 473.416,213.75 C468.013,216.846 462.876,218.061 457.896,218.148 C457.758,217.389 457.51,217.309 457.02,218.176 C451.317,218.129 445.827,216.588 440.427,214.439 C432.022,211.055 452.291,216.486 452.47,216.791 C454.2,216.789 454.424,212.52 453.032,212.607 L453.032,212.607 Z M438.909,67.249 C457.694,67.249 472.434,73.405 483.121,85.71 C493.81,98.019 499.153,118.555 499.153,147.314 C499.153,172.32 495.655,191.104 488.659,203.672 C485.161,201.473 481.923,199.334 478.946,197.258 C473.036,193.117 468.048,189.73 463.958,187.076 C457.474,191.609 452.582,185.096 446.502,186.834 C443.418,184.139 443.634,180.965 444.445,177.703 C441.743,176.971 438.748,176.297 435.417,175.686 L421.614,207.363 C437.552,213.713 449.208,220.451 456.593,227.574 C451.282,228.734 445.645,229.322 439.688,229.322 C438.625,229.322 437.577,229.295 436.539,229.254 C444.028,232.271 455.225,232.322 462.575,231.777 C470.431,238.984 468.226,246.174 478.726,247.928 C481.843,255.945 471.276,245.189 468.524,247.348 C463.431,256.867 477.312,250.918 479.297,258.115 C476.031,259.346 470.66,256.773 472.69,261.135 C467.405,263.094 463.872,247.484 463.145,241.967 C455.267,232.545 439.136,236.197 433.04,229.035 C417.638,227.682 405.28,221.496 395.964,210.475 C385.341,197.912 380.029,176.074 380.029,144.986 C380.029,127.392 382.41,112.888 387.14,101.43 C383.78,101.634 380.531,101.135 378.057,95.785 C379.618,92.773 382.601,92.617 385.184,92.788 C385.416,94.066 386.633,95.357 389.306,96.681 C389.413,96.472 389.53,96.274 389.639,96.067 C389.189,94.982 389.146,93.863 389.386,92.772 C389.775,92.565 389.921,92.143 389.822,91.478 C390.084,90.88 390.438,90.31 390.854,89.751 C391.893,89.759 392.513,90.091 392.892,90.634 C393.98,89.039 395.127,87.519 396.354,86.103 C407.239,73.535 421.424,67.249 438.909,67.249 L438.909,67.249 Z M452.903,44.06 C459.345,42.234 464.432,49.627 471.499,43.408 C472.202,52.642 450.312,50.905 452.903,44.06 L452.903,44.06 Z M469.644,25.175 C466.63,26.239 464.132,23.803 460.642,28.197 C456.622,24.789 459.161,20.427 457.179,16.719 C463.009,14.86 461.511,25.648 469.644,25.175 L469.644,25.175 Z M477.2,55.881 C479.498,62.045 474.455,61.856 474.342,57.058 C475.261,56.46 476.231,56.14 477.2,55.881 L477.2,55.881 Z M502.437,265.211 C502.192,265.061 501.958,264.877 501.757,264.588 C501.71,264.51 501.663,264.424 501.624,264.34 C501.896,264.635 502.172,264.918 502.437,265.211 L502.437,265.211 Z M397.275,235.455 C408.603,240.191 389.853,243.801 397.275,235.455 L397.275,235.455 Z M410.157,254.092 C410.815,256.059 411.295,258.193 411.62,260.508 C409.187,259.732 407.061,258.65 405.152,257.348 C405.029,258.457 404.522,259.684 403.145,261.178 C399.729,258.672 396.323,256.178 392.917,253.682 C394.447,251.787 395.982,250.584 397.52,249.832 C396.706,248.764 395.931,247.648 395.175,246.521 C395.105,247.086 394.97,247.66 394.751,248.213 C394.097,246.215 393.295,244.367 392.169,242.865 C392.331,242.758 392.486,242.676 392.637,242.613 C392.386,242.215 392.133,241.816 391.881,241.42 C389.997,243.67 387.208,244.885 386.041,241.617 C387.715,239.332 389.391,237.047 391.064,234.762 C394.634,234.898 394.184,238.105 392.485,240.621 C397.958,241.047 402.084,242.842 405.11,245.754 C405.917,244.396 407.483,243.615 410.088,244.172 C415.142,246.738 411.9,247.891 409.855,250.242 C410.975,250.537 412.098,250.816 413.218,251 C412.204,252.988 411.184,253.859 410.157,254.092 L410.157,254.092 Z M388.325,251.803 C387.919,250.92 387.837,250.205 387.99,249.619 C387.991,249.652 388.001,249.686 388.003,249.713 C390.14,249.281 391.012,250.145 391.39,251.492 C390.535,251.795 389.517,251.92 388.325,251.803 L388.325,251.803 Z M384.238,229.762 C381.396,227.236 378.593,229.928 375.753,227.053 C379.055,216.986 382.553,229.92 385.885,223.943 C387.321,225.861 383.712,229.334 385.948,231.014 C383.723,233.369 383.306,231.033 384.238,229.762 L384.238,229.762 Z M371.106,126.296 C372.605,125.515 374.096,124.728 375.604,123.947 C380.02,129.826 375.394,131.364 372.015,133.498 C371.16,130.838 372.685,129.318 371.106,126.296 L371.106,126.296 Z M365.822,236.025 C358.932,236.852 364.167,229.217 367.661,229.332 C366.724,223.477 360.784,235.482 361.416,226.018 C363.29,225.732 365.147,225.443 367.016,225.158 C366.774,227.006 368.413,226.953 370.135,226.807 C369.156,230.123 366.811,232.715 365.822,236.025 L365.822,236.025 Z M348.347,178.635 C345.53,174.18 349.257,170.777 348.474,166.646 C354.594,166.615 349.938,176.463 357.839,178.443 C354.646,178.557 352.99,175.486 348.347,178.635 L348.347,178.635 Z M355.795,211.953 C355.504,213.965 354.53,214.59 353.722,214.244 C353.687,214.277 353.656,214.311 353.62,214.346 C353.623,214.297 353.613,214.252 353.613,214.203 C352.962,213.848 352.469,212.84 352.585,211.422 C351.261,209.363 349.584,207.414 353.534,203.742 C358.079,205.318 358.825,208.055 355.795,211.953 L355.795,211.953 Z M303.379,202.896 C294.258,198.008 307.851,188.949 303.379,202.896 L303.379,202.896 Z M305.357,174.186 C307.626,171.557 308.105,167.967 307.177,163.641 C314.543,165.082 318.105,173.303 305.357,174.186 L305.357,174.186 Z M296.188,154.708 C292.044,153.122 296.978,151.501 299.933,151.267 C301.662,142.531 302.542,157.513 296.188,154.708 L296.188,154.708 Z M519.01,264.521 C520.407,265.541 523.112,262.23 521.937,261.479 C524.294,262.998 523.84,263.738 526.075,265.982 C529.795,269.699 537.319,268.791 537.704,274.449 C531.515,273.752 526.653,271.695 522.585,268.822 C522.923,268.129 522.77,267.918 521.862,268.328 C517.29,264.918 513.771,260.432 510.687,255.504 C505.909,247.807 519.046,264.17 519.01,264.521 L519.01,264.521 Z M543.037,219.711 C547.595,219.912 549.011,223.316 553.901,223.17 C551.686,230.713 544.37,220.914 540.841,227.758 C541.989,235.643 554.097,240.035 547.288,247.297 C537.918,248.135 538.18,239.148 531.905,236.83 C529.956,228.117 541.999,226.832 543.037,219.711 L543.037,219.711 Z M510.034,273.586 C510.034,273.51 510.031,273.453 510.034,273.379 C510.091,273.445 510.141,273.502 510.2,273.568 C510.145,273.576 510.087,273.578 510.034,273.586 L510.034,273.586 Z M570.261,208.332 C568.756,218.982 560.319,207.426 557.201,206.9 C557.639,198.236 564.855,212.104 570.261,208.332 L570.261,208.332 Z M574.544,143.336 C576.772,147.568 584.666,141.12 584.196,150.447 C576.135,150.453 575.595,157.831 573.39,163.582 C568.179,157.442 569.655,161.275 562.084,159.592 C564,146.767 573.743,156.414 574.544,143.336 L574.544,143.336 Z M349.506,268.982 C349.355,267.412 350.156,265.855 352.586,264.764 C358.18,263.846 356.246,266.693 355.987,269.797 C357.065,269.375 358.136,268.936 359.146,268.422 C359.504,270.625 359.197,271.932 358.507,272.727 C360.199,273.922 361.85,275.359 363.478,277.033 C362.306,277.428 361.15,277.717 360.006,277.924 C377.84,287.422 398.831,293.027 423.027,294.678 C421.019,292.924 417.309,287.484 411.986,291.09 C411.478,288.236 411.702,286.361 412.171,284.816 C408.659,284.547 405.14,283.531 401.667,288.203 C399.89,286.645 397.648,285.227 395.497,283.781 C393.26,284.783 390.982,286.07 388.645,287.766 C385.732,284.238 381.91,286.924 379.054,282.988 C381.048,280.992 383.04,279.002 385.032,277.01 C378.055,275.961 376.815,252.227 367.581,263.223 C364.974,259.346 366.582,257.01 370.897,255.117 C366.366,252.967 361.837,252.074 357.352,255.727 C355.623,251.264 353.989,246.951 352.313,243.205 C349.702,242.43 347.424,242.154 347.222,244.758 C342.541,244.73 349.35,230.854 338.178,230.748 C338.827,227.057 344.064,229.629 345.292,232.227 C345.48,231.9 345.668,231.574 345.857,231.244 C344.204,231.268 343.349,230.326 345.245,225.775 C343.548,225.201 341.866,226.822 340.16,225.563 C337.634,228.695 335.133,231.826 336.838,233.668 C334.894,234.309 328.025,219.127 323.209,223.68 C325.191,217.506 340.405,219.553 351.707,221.439 C353.143,219.252 354.681,217.123 356.422,215.1 C362.374,215.85 359.412,220.543 353.833,220.631 C353.815,221.041 353.794,221.41 353.771,221.785 C356.378,222.23 358.696,222.635 360.473,222.879 C359.354,224.406 358.237,225.932 357.125,227.449 C355.348,240.721 372.913,259.721 387.86,257.006 C389.664,260.611 385.07,263.037 382.804,260.324 C381.754,264.781 385.871,267.658 387.972,271.145 C384.332,272.445 383.24,274.404 385.619,276.422 C386.639,275.4 387.659,274.381 388.68,273.361 C388.667,273.523 388.668,273.674 388.665,273.83 C391.675,270.746 394.764,277.496 397.805,278.537 C401.695,277.402 406.139,274.592 409.686,270.311 C413.142,273.258 416.958,273.715 420.68,274.813 C420.677,274.713 420.664,274.621 420.664,274.518 C425.152,273.824 429.631,273.133 434.119,272.441 C428.242,279.271 440.159,285.598 452.866,282.398 C454.11,287.662 457.855,290.373 460.353,294.355 C479.459,292.805 496.044,289.098 510.126,283.254 C504.855,274.42 493.753,268.416 496.493,259.484 C497.837,268.131 510.327,277.6 518.303,282.58 C518.711,284.639 518.804,286.461 518.749,288.125 C523.44,291.666 529.542,295.998 537.049,301.129 C549.098,309.354 561.272,316.445 573.585,322.406 L598.067,273.047 C589.517,269.291 582.716,265.986 577.662,263.139 C574.292,261.189 567.104,256.402 556.095,248.76 C576.817,223.49 587.187,189.811 587.187,147.705 C587.187,100.418 574.327,64.077 548.61,38.688 C526.1,16.46 495.334,3.961 456.304,1.187 C455.155,4.853 452.835,9.081 452.388,11.371 C454.378,13.275 455.774,11.097 457.384,10.384 C465.611,20.641 449.351,12.283 453.407,18.36 C445.534,16.304 449.833,7.975 452.185,0.933 C451.815,0.914 451.439,0.902 451.068,0.883 C449.649,2.152 448.649,3.484 449.966,5.188 C446.995,6.152 446.313,2.362 442.983,4.075 C442.506,3.237 443.587,1.927 444.944,0.669 C443.014,0.625 441.071,0.594 439.105,0.594 C422.262,0.594 406.78,2.316 392.645,5.744 C393.338,6.713 394.073,7.654 394.966,8.476 C394.595,9.541 394.158,10.185 393.707,10.565 C397.452,18.88 403.842,10.776 407.617,18.92 C400.769,19.355 396.521,20.201 393.76,19.771 C386.417,21.737 393.805,34.865 385.147,30.668 C387.249,23.945 383.396,14.357 392.104,10.808 C390.905,10.278 389.833,8.365 389.517,6.535 C388.959,6.683 388.397,6.826 387.844,6.979 C388.161,8.857 388.216,10.412 384.107,8.06 C363.082,14.454 345.302,24.955 330.769,39.56 C323.264,47.103 316.856,55.535 311.53,64.841 C312.347,67.835 313.792,70.37 318.198,72.603 C318.739,80.648 312.739,69.356 309.292,68.929 C308.443,70.549 307.622,72.191 306.836,73.862 C308.624,76.458 315.875,77.291 315.695,82.497 C312.212,82.695 307.855,78.632 308.489,83.402 C306.439,83.506 305.311,81.454 304.747,78.541 C299.968,89.799 296.526,102.14 294.436,115.576 C297.892,115.572 301.445,116.757 302.444,120.017 C304.12,119.137 305.79,118.261 307.462,117.388 C307.788,118.007 308.121,118.64 308.445,119.259 C305.09,121.009 301.749,122.762 298.396,124.513 C298.476,122.023 296.11,119.952 293.916,119.173 C292.877,126.813 292.267,134.799 292.074,143.124 C293.324,144.14 294.154,145.583 294.384,147.636 C293.478,147.931 292.694,148.103 292.006,148.176 C292.005,148.408 292,148.635 292,148.868 C292,151.001 292.039,153.106 292.097,155.198 C292.11,155.212 292.123,155.223 292.136,155.238 C292.123,155.253 292.112,155.267 292.099,155.283 C292.276,161.622 292.716,167.768 293.422,173.719 C296.506,174.521 299.865,176.92 302.897,179.992 C303.716,179.898 304.578,179.781 305.437,179.594 C305.443,179.416 305.442,179.234 305.436,179.051 C306.352,178.934 307.057,178.902 307.589,178.941 C309.622,178.113 311.479,176.621 312.624,173.76 C320.897,174.322 313.115,188.223 320.713,183.818 C321.171,181.029 325.596,177.973 325.013,186.246 C323.527,186.471 322.506,186.352 321.822,186.037 C321.645,186.375 321.433,186.725 321.212,187.08 C319.467,188.799 320.284,189.719 321.237,190.613 C317.89,195.779 314.429,187.215 311.034,186.648 C311.485,184.154 311.977,181.637 314.355,178.545 C312.569,178.475 310.79,179.018 309.011,179.77 C309.163,180.912 307.046,182.947 306.493,184.168 C306.748,184.498 306.993,184.83 307.232,185.166 C307.678,185.174 308.31,185.092 309.204,184.887 C308.888,185.658 308.584,186.254 308.292,186.715 C309.865,189.117 311.108,191.551 311.815,193.725 C303.581,196.666 306.5,190.279 303.925,187.24 C302.836,185.951 301.671,184.658 300.447,183.408 C299.454,183.654 298.456,183.811 297.462,183.723 C297.149,182.398 297.418,181.609 298.049,181.102 C296.725,179.889 295.349,178.75 293.94,177.717 C298.821,212.379 312.937,240.275 336.305,261.391 C337.658,262.611 339.051,263.783 340.458,264.938 C341.678,265.063 342.158,265.619 342.174,266.309 C343.303,267.199 344.44,268.08 345.603,268.93 C346.926,268.797 348.227,268.811 349.506,268.982 L349.506,268.982 Z" id="Fill-4" sketch:type="MSShapeGroup"></path>
                <path d="M857.455,266.455 C849.623,264.584 853.08,266.803 845.978,269.92 C839.941,258.446 853.503,260.465 846.418,249.446 C850.716,251.539 853.273,241.672 858.406,249.473 C851.908,254.243 855.835,260.514 857.455,266.455 L857.455,266.455 Z M802.968,233.821 C810.185,235.145 810.298,228.401 818.701,231.991 C819.16,238.666 805.746,242.266 802.968,233.821 L802.968,233.821 Z M798.848,259.01 C800.409,255.998 803.392,255.842 805.975,256.014 C806.232,257.43 807.68,258.862 811,260.336 C810.036,258.936 809.86,257.442 810.177,255.998 C810.566,255.791 810.712,255.37 810.613,254.704 C810.875,254.106 811.229,253.536 811.644,252.977 C816.888,253.018 811.718,261.053 816.398,265.196 C810.71,262.155 803.443,268.946 798.848,259.01 L798.848,259.01 Z M783.017,239.745 C783.065,236.952 785,236.006 784.482,232.637 C786.152,232.381 787.818,232.12 789.496,231.864 C791.779,238.856 786.904,238.817 783.017,239.745 L783.017,239.745 Z M770.184,234.971 C768.322,230.323 770.408,227.563 775.042,226.036 C780.881,232.594 773.201,232.664 770.184,234.971 L770.184,234.971 Z M749.333,256.373 C749.81,259.084 752.224,258.153 753.945,258.532 C754.517,271.666 746.343,255.313 746.023,262.614 C739.107,254.112 756.731,249.483 760.144,243.237 C766.654,248.276 752.74,253.225 749.333,256.373 L749.333,256.373 Z M746.043,274.825 C744.814,269.698 749.441,267.68 750.034,263.518 C755.835,265.465 748.25,273.282 755.089,277.707 C752.029,276.784 751.455,273.342 746.043,274.825 L746.043,274.825 Z M782.414,220.459 C783.072,221.711 783.72,222.957 784.374,224.209 C781.834,224.27 779.281,224.387 775.859,226.268 C775.23,221.649 777.701,220.252 782.414,220.459 L782.414,220.459 Z M673.455,82.298 C673.474,81.19 673.791,80.374 674.132,79.581 C668.835,79.63 661.341,75.197 660.144,72.247 C666.118,69.991 668.084,74.277 674.955,76.913 C675.011,76.404 675.023,75.853 674.92,75.189 C676.59,74.934 678.255,74.672 679.935,74.417 C682.216,81.408 677.342,81.37 673.455,82.298 L673.455,82.298 Z M657.96,53.861 C658.24,53.719 658.519,53.569 658.799,53.424 C655.704,53.926 654.423,50.65 652.802,48.079 C656.991,47.128 660.433,47.72 662.308,51.59 C662.732,51.369 663.154,51.15 663.574,50.929 C663.513,55.28 661.204,58.556 660.027,62.372 C652.252,63.027 664.832,58.869 657.96,53.861 L657.96,53.861 Z M639.771,98.926 C640.25,101.638 642.663,100.706 644.383,101.084 C644.957,114.22 636.781,97.866 636.461,105.166 C629.544,96.664 647.169,92.035 650.582,85.789 C657.091,90.828 643.178,95.777 639.771,98.926 L639.771,98.926 Z M636.481,117.377 C635.253,112.25 639.878,110.233 640.472,106.071 C646.275,108.017 638.689,115.834 645.527,120.26 C642.467,119.336 641.892,115.895 636.481,117.377 L636.481,117.377 Z M643.582,58.804 C633.373,57.123 643.312,44.16 643.582,58.804 L643.582,58.804 Z M657.894,29.97 C660.425,24.176 661.769,25.394 662.875,27.508 C663.424,27.046 664.082,26.606 664.897,26.189 C664.356,27.725 664.863,29.432 665.533,31.162 C665.91,31.07 666.322,30.665 666.8,29.79 C667.929,31.914 667.577,33.139 666.513,33.659 C667.509,36.406 667.847,39.05 663.949,41.012 C664.066,42.897 664.154,44.789 667.601,45.505 C662.433,50.563 655.878,41.498 661.382,36.908 C661.574,36.975 661.718,37.06 661.878,37.14 C661.326,35.616 660.818,34.098 660.696,32.646 C659.544,31.967 658.519,31.057 657.894,29.97 L657.894,29.97 Z M636.185,30.992 C637.485,27.773 636.779,24.221 634.503,20.426 C641.941,19.411 647.966,26.041 636.185,30.992 L636.185,30.992 Z M688.986,29.163 C689.77,30.667 690.556,32.162 691.336,33.666 C688.55,34.588 688.949,36.028 689.497,37.49 C684.111,41.44 679.737,29.544 688.986,29.163 L688.986,29.163 Z M714.484,59.881 C714.627,63.337 713.246,66.547 713.378,69.998 C707.124,73.006 709.613,64.089 712.957,63.069 C710.179,57.831 708.435,71.111 705.976,61.95 C707.658,61.075 709.323,60.201 711,59.328 C711.367,61.154 712.902,60.576 714.484,59.881 L714.484,59.881 Z M859.422,220.325 L823.09,220.325 C823.078,221.153 823.19,222.037 823.57,223.053 C821.763,223.823 820.371,222.018 818.963,220.325 L796.837,220.325 C798.003,220.979 799.043,221.893 799.865,223.262 C795.526,224.254 792.351,222.827 789.695,220.325 L722.032,220.325 L722.032,93.342 C721.124,91.969 721.19,90.59 722.032,89.141 L722.032,86.266 C717.963,86.162 714.306,87.246 711.722,91.379 C708.644,87.715 705.705,84.158 702.91,81.156 C700.189,81.264 697.944,81.74 698.591,84.268 C694.154,85.754 696.119,70.423 685.51,73.93 C684.933,70.226 690.72,70.97 692.721,73.033 C692.793,72.662 692.866,72.293 692.938,71.919 C691.38,72.474 690.267,71.861 690.593,66.941 C688.802,66.945 687.734,69.022 685.711,68.381 C684.333,72.162 682.976,75.933 685.185,77.126 C683.552,78.359 672.149,66.207 669.06,72.072 C668.943,65.589 684.003,62.615 695.308,60.751 C695.691,59.271 696.119,57.801 696.6,56.338 C694.252,55.434 692.28,53.817 691.544,49.868 C690.204,48.633 689.388,47.016 691.324,43.412 C695.184,43.43 696.968,44.949 696.695,47.956 L705.408,46.977 C710.358,48.709 702.87,54.644 705.962,60.076 C704.437,58.443 702.353,57.866 700.232,57.356 C699.462,58.119 698.39,58.822 697.059,59.299 C697.176,59.693 697.275,60.05 697.375,60.412 C699.986,59.992 702.31,59.627 704.072,59.284 C703.505,61.091 702.94,62.893 702.377,64.69 C703.918,72.463 712.518,79.945 722.032,83.228 L722.032,58.828 C721.377,58.83 720.674,58.696 719.88,58.3 C719.835,54.514 720.765,53.506 722.032,53.459 L722.032,5.594 L634,5.594 L634,36.476 C634.578,36.729 635.155,36.995 635.732,37.283 C636.477,36.93 637.253,36.539 638.006,36.085 C637.955,35.915 637.896,35.744 637.831,35.572 C638.66,35.164 639.316,34.908 639.834,34.774 C641.49,33.333 642.765,31.321 642.925,28.244 C650.937,26.103 648.06,41.771 653.829,35.152 C653.363,32.365 656.563,28.043 658.683,36.062 C657.349,36.754 656.343,36.971 655.593,36.893 C655.537,37.271 655.449,37.671 655.354,38.078 C654.257,40.266 655.328,40.874 656.519,41.414 C655.019,47.385 648.978,40.395 645.582,40.955 C645.205,38.449 644.856,35.909 646.109,32.215 C644.396,32.723 642.886,33.812 641.447,35.098 C641.959,36.131 640.612,38.74 640.483,40.074 C640.832,40.304 641.171,40.54 641.505,40.78 C641.93,40.642 642.502,40.361 643.281,39.879 C643.232,40.711 643.136,41.373 643.008,41.904 C645.273,43.67 647.235,45.57 648.606,47.4 C641.763,52.844 642.462,45.856 639.045,43.811 C637.598,42.941 636.079,42.095 634.515,41.308 C634.345,41.418 634.173,41.519 634,41.622 L634,136.044 C634.689,136.111 635.418,136.138 636.248,136.063 C635.652,137.019 634.88,137.644 634,138.001 L634,290.485 L731.578,290.485 C729.103,287.715 728.037,284.596 730.424,283.045 C734.015,284.381 735.468,287.885 737.806,290.485 L792.316,290.485 C792.209,290.18 792.076,289.862 791.898,289.522 C793.397,288.741 794.887,287.954 796.395,287.172 C797.374,288.475 797.888,289.555 798.091,290.485 L859.422,290.485 L859.422,220.325 L859.422,220.325 Z" id="Fill-5" sketch:type="MSShapeGroup"></path>
            </g>
            <path d="M355.325,596.169 C355.325,647.476 313.732,689.068 262.425,689.068 C211.119,689.068 169.526,647.476 169.526,596.169 C169.526,544.862 211.119,503.269 262.425,503.269 C313.732,503.269 355.325,544.862 355.325,596.169" id="Fill-1765" fill="#D2A854" sketch:type="MSShapeGroup"></path>
            <g id="Group" sketch:type="MSLayerGroup" transform="translate(824.152974, 528.000000)">
                <path d="M0.363,69.167 C0.363,31.336 31.033,0.667 68.864,0.667 C106.694,0.667 137.363,31.336 137.363,69.167 C137.363,106.997 106.694,137.671 68.864,137.671 C31.033,137.671 0.363,106.997 0.363,69.167" id="Fill-9403" fill="#1B7387" sketch:type="MSShapeGroup"></path>
                <path d="M137.126851,63.4383741 L115.004883,41.3164062 L24.4355469,41.2890625 L24.2251099,96.6987427 L65.0954391,137.569072 C66.3430406,137.636731 67.5995202,137.671 68.864,137.671 C106.694,137.671 137.363,106.997 137.363,69.167 C137.363,67.2377939 137.283244,65.3272129 137.126851,63.4383741 Z" id="Path-13605" fill="#115666" sketch:type="MSShapeGroup"></path>
                <path d="M24.261,42.191 L24.261,96.964 L49.002,66.34 L24.261,42.191" id="Fill-11832" fill="#FFFFFF" sketch:type="MSShapeGroup"></path>
                <path d="M116.198,42.191 L116.198,96.964 L91.457,66.34 L116.198,42.191" id="Fill-11833" fill="#FFFFFF" sketch:type="MSShapeGroup"></path>
                <path d="M50.271,67.608 L25.53,98.232 L70.229,98.232 L70.229,87.08 L70.224,87.085 L50.271,67.608" id="Fill-11834" fill="#FFFFFF" sketch:type="MSShapeGroup"></path>
                <path d="M90.189,67.608 L70.234,87.085 L70.229,87.08 L70.229,98.232 L114.929,98.232 L90.189,67.608" id="Fill-11835" fill="#FFFFFF" sketch:type="MSShapeGroup"></path>
                <path d="M50.271,65.071 L70.224,84.548 L70.229,84.543 L70.229,40.923 L25.53,40.923 L50.271,65.071" id="Fill-11836" fill="#FFFFFF" sketch:type="MSShapeGroup"></path>
                <path d="M70.229,40.923 L70.229,84.543 L70.234,84.548 L114.929,40.923 L70.229,40.923" id="Fill-11837" fill="#FFFFFF" sketch:type="MSShapeGroup"></path>
            </g>
            <g id="Group" sketch:type="MSLayerGroup" transform="translate(633.000000, 528.000000)">
                <path d="M136.646973,68.5005 C136.646973,106.0005 106.246973,136.3995 68.7469727,136.3995 C31.2469727,136.3995 0.847972656,106.0005 0.847972656,68.5005 C0.847972656,31.0005 31.2469727,0.6005 68.7469727,0.6005 C106.246973,0.6005 136.646973,31.0005 136.646973,68.5005" id="Fill-7740" fill="#1B7387" sketch:type="MSShapeGroup"></path>
                <path d="M62.9702175,136.157222 C64.8745145,136.317656 66.8011845,136.3995 68.7469727,136.3995 C106.246973,136.3995 136.646973,106.0005 136.646973,68.5005 C136.646973,66.8298741 136.586638,65.1733395 136.468028,63.5329565 L124.753345,51.8182734 L114.424956,58.6588306 L107.366626,51.6005 L100.803441,61.7570413 L90.8456298,51.7992305 L73.6456536,68.0489613 L57.2152587,51.6185664 L49.2060922,69.2246343 L34.6747313,54.6932734 L18.8661376,56.7928828 L13.8479727,87.0349718 L62.9702235,136.157223 Z" id="Fill-7740-Copy" fill="#115666" sketch:type="MSShapeGroup"></path>
                <path d="M21.3699727,79.8464283 L27.2029727,79.8464283 L27.9189727,79.1304283 C28.0199727,78.9774283 28.0719727,78.8754283 28.0719727,78.7714283 L28.0719727,74.6284283 C28.0719727,74.6284283 28.0719727,74.4244283 27.9189727,74.2694283 L27.0489727,73.4004283 C26.9469727,73.2974283 26.7929727,73.2464283 26.7409727,73.2464283 L21.3699727,73.2464283 L21.3699727,79.8464283 L21.3699727,79.8464283 Z M21.3699727,59.1234283 L21.3699727,65.7244283 L27.2029727,65.7244283 L27.9189727,65.0094283 C28.0199727,64.8554283 28.0719727,64.7524283 28.0719727,64.6504283 L28.0719727,60.5054283 C28.0719727,60.5054283 28.0719727,60.3014283 27.9189727,60.1474283 L27.0489727,59.2774283 C26.9469727,59.1234283 26.7929727,59.1234283 26.7409727,59.1234283 L21.3699727,59.1234283 L21.3699727,59.1234283 Z M35.0309727,67.8744283 L33.0349727,69.9214283 L35.0309727,71.9164283 C35.3889727,72.2734283 35.4919727,72.5814283 35.5419727,72.8384283 L35.5929727,72.8384283 L35.5929727,82.6104283 C35.5929727,82.6104283 35.6449727,83.3274283 35.0309727,83.9414283 L32.1659727,86.8054283 C31.5519727,87.4204283 30.8359727,87.3684283 30.8359727,87.3684283 L14.5629727,87.3684283 C14.1549727,87.3684283 13.8479727,87.0614283 13.8479727,86.6524283 L13.8479727,52.3184283 C13.8479727,51.9104283 14.1549727,51.6014283 14.5629727,51.6014283 L30.8359727,51.6014283 C30.8359727,51.6014283 31.5519727,51.5524283 32.1659727,52.1664283 L35.0309727,55.0314283 C35.6449727,55.6444283 35.5929727,56.3614283 35.5929727,56.3614283 L35.5929727,66.5444283 C35.5929727,66.5444283 35.6449727,67.2614283 35.0309727,67.8744283 L35.0309727,67.8744283 Z" id="Fill-9398" fill="#FFFFFF" sketch:type="MSShapeGroup"></path>
                <path d="M57.8501178,75.5985 L54.7801178,65.1095 L51.6581178,75.5985 L57.8501178,75.5985 L57.8501178,75.5985 Z M68.6471178,86.6515 C68.7491178,87.0095 68.2891178,87.3675 67.8791178,87.3675 L62.0461178,87.3675 C61.6371178,87.3675 61.2781178,87.0095 61.1261178,86.6515 L59.8961178,82.5075 L49.6121178,82.5075 L48.3841178,86.6515 C48.2301178,87.0095 47.8721178,87.3675 47.4631178,87.3675 L41.6301178,87.3675 C41.2201178,87.3675 40.7611178,87.0095 40.8621178,86.6515 L50.9931178,52.3695 L50.9931178,52.3175 C51.1981178,51.8575 51.3511178,51.6005 51.7101178,51.6005 L57.8001178,51.6005 C58.1581178,51.6005 58.3621178,51.8575 58.5151178,52.3175 L58.5151178,52.3695 C61.8921178,63.7795 65.2691178,75.2405 68.6471178,86.6515 L68.6471178,86.6515 Z" id="Fill-9399" fill="#FFFFFF" sketch:type="MSShapeGroup"></path>
                <path d="M72.8491725,56.3575 C72.8491725,56.3575 72.7981725,55.5905 73.3611725,55.0275 L76.2261725,52.1625 C76.8411725,51.6005 77.5561725,51.6005 77.5561725,51.6005 L90.8091725,51.6005 C90.8091725,51.6005 91.5781725,51.6005 92.1391725,52.1625 L95.0041725,55.0275 C95.6191725,55.6415 95.5671725,56.3575 95.5671725,56.3575 L95.5171725,56.3575 L95.5671725,56.4615 L95.5671725,61.8325 C95.5671725,62.1905 95.2101725,62.5495 94.8521725,62.5495 L88.7621725,62.5495 C88.3521725,62.5495 88.0451725,62.1905 88.0451725,61.8325 L88.0451725,60.5025 C88.0451725,60.5025 88.0451725,60.2985 87.8931725,60.1445 L87.0241725,59.2745 C86.9201725,59.1715 86.7661725,59.1215 86.6651725,59.1215 L81.7021725,59.1215 C81.5991725,59.1215 81.4961725,59.1715 81.3431725,59.2745 L80.5241725,60.1445 C80.3201725,60.2985 80.3201725,60.5025 80.3201725,60.5025 L80.3201725,78.7695 C80.3721725,78.8715 80.3721725,79.0255 80.5241725,79.1285 L81.2411725,79.8445 L87.1761725,79.8445 L87.8931725,79.1285 C87.9961725,79.0255 88.0451725,78.8715 88.0451725,78.7695 L88.0451725,77.2335 C88.0451725,76.8765 88.3521725,76.5185 88.7621725,76.5185 L94.8521725,76.5185 C95.2101725,76.5185 95.5671725,76.8765 95.5671725,77.2335 L95.5671725,83.0175 C95.5171725,83.2725 95.5171725,83.4255 95.0041725,83.9375 L92.1391725,86.8035 C91.5781725,87.3655 90.8091725,87.3655 90.8091725,87.3655 L77.5561725,87.3655 C77.5561725,87.3655 76.7901725,87.3655 76.2261725,86.8035 L73.3611725,83.9375 C72.8491725,83.4255 72.8491725,82.6075 72.8491725,82.6075 L72.8491725,56.3575" id="Fill-9400" fill="#FFFFFF" sketch:type="MSShapeGroup"></path>
                <path d="M125.817973,86.6515 C125.920973,87.0095 125.459973,87.3675 125.049973,87.3675 L118.244973,87.3675 C117.834973,87.3675 117.476973,87.0095 117.323973,86.6515 L111.029973,72.5305 L108.368973,76.2135 L108.368973,86.6515 C108.368973,87.0605 108.061973,87.3675 107.652973,87.3675 L101.563973,87.3675 C101.154973,87.3675 100.847973,87.0605 100.847973,86.6515 L100.847973,52.3175 C100.847973,51.9595 101.154973,51.6005 101.563973,51.6005 L107.652973,51.6005 C108.061973,51.6005 108.368973,51.9595 108.368973,52.3175 L108.368973,63.5235 L115.941973,52.3175 C116.197973,51.9595 116.454973,51.6005 116.862973,51.6005 L124.590973,51.6005 C124.948973,51.6005 125.663973,51.9595 125.510973,52.3175 L115.890973,65.7745 L125.613973,86.2425 L125.817973,86.6515" id="Fill-9401" fill="#FFFFFF" sketch:type="MSShapeGroup"></path>
            </g>
            <g id="Group" sketch:type="MSLayerGroup" transform="translate(631.000000, 151.000000)">
                <path d="M329.363,164.552 C329.363,255.406 255.712,329.055 164.86,329.055 C74.007,329.055 0.357,255.406 0.357,164.552 C0.357,73.7 74.007,0.049 164.86,0.049 C255.712,0.049 329.363,73.7 329.363,164.552" id="Fill-5309" fill="#C24A53" sketch:type="MSShapeGroup"></path>
                <path d="M166.873015,329.042936 L89.8359375,252.005859 L90.999061,204.080116 L39.640625,152.72168 L48.2158203,99.3701172 L66.34375,90.6005859 L76.4328421,85.2717093 L88.3730469,97.2119141 L126.086111,88.381033 L141.733398,104.02832 L154.651367,94.0820312 L178.558064,87.9740797 L193.926758,103.342773 L205.548828,95.0546875 L233.966447,89.7086344 L247.286133,103.02832 L260.510742,95.9990234 L286.025707,90.2591059 L325.71775,129.951148 C328.10596,141.107274 329.363,152.682848 329.363,164.552 C329.363,254.734032 256.797436,327.964623 166.873015,329.042936 Z" id="Path-10474" fill="#993139" sketch:type="MSShapeGroup"></path>
                <path d="M52.722,111.287 L69.913,111.287 C70.688,111.287 71.272,111.87 71.272,112.646 L71.272,124.204 C71.272,124.981 70.688,125.564 69.913,125.564 L52.722,125.564 L52.722,138.093 L75.158,138.093 C75.835,138.093 76.516,138.676 76.516,139.453 L76.516,151.011 C76.516,151.788 75.835,152.37 75.158,152.37 L39.804,152.37 C39.027,152.37 38.443,151.788 38.443,151.011 L38.443,85.841 C38.443,85.063 39.027,84.48 39.804,84.48 L75.158,84.48 C75.835,84.48 76.516,85.063 76.516,85.841 L76.516,97.398 C76.516,98.175 75.835,98.758 75.158,98.758 L52.722,98.758 L52.722,111.287" id="Fill-7731" fill="#FFFFFF" sketch:type="MSShapeGroup"></path>
                <path d="M102.058,113.132 L112.256,113.132 C112.354,113.132 112.645,113.132 112.934,112.841 L114.49,111.287 C114.879,110.898 114.782,110.51 114.782,110.51 L114.782,101.381 C114.782,101.381 114.879,100.992 114.49,100.603 L112.934,99.05 C112.548,98.661 112.159,98.758 112.159,98.758 L102.058,98.758 L102.058,113.132 L102.058,113.132 Z M129.058,118.377 C129.058,118.377 129.252,119.737 128.086,120.902 L122.552,126.438 L122.26,126.632 L132.167,151.011 C132.361,151.69 131.486,152.37 130.806,152.37 L117.793,152.37 C117.015,152.37 116.334,151.69 116.043,151.011 L106.526,127.409 L102.058,127.409 L102.058,151.011 C102.058,151.69 101.475,152.37 100.697,152.37 L89.14,152.37 C88.459,152.37 87.782,151.69 87.782,151.011 L87.782,85.841 C87.782,85.063 88.459,84.48 89.14,84.48 L120.027,84.48 C120.027,84.48 121.385,84.287 122.552,85.452 L128.086,90.988 C129.252,92.153 129.058,93.707 129.058,93.707 L129.058,118.377 L129.058,118.377 Z" id="Fill-7732" fill="#FFFFFF" sketch:type="MSShapeGroup"></path>
                <path d="M155.083,113.132 L165.282,113.132 C165.379,113.132 165.67,113.132 165.962,112.841 L167.515,111.287 C167.905,110.898 167.807,110.51 167.807,110.51 L167.807,101.381 C167.807,101.381 167.905,100.992 167.515,100.603 L165.962,99.05 C165.574,98.661 165.185,98.758 165.185,98.758 L155.083,98.758 L155.083,113.132 L155.083,113.132 Z M182.086,118.377 C182.086,118.377 182.278,119.737 181.114,120.902 L175.578,126.438 L175.286,126.632 L185.192,151.011 C185.387,151.69 184.514,152.37 183.833,152.37 L170.819,152.37 C170.041,152.37 169.363,151.69 169.071,151.011 L159.553,127.409 L155.083,127.409 L155.083,151.011 C155.083,151.69 154.502,152.37 153.725,152.37 L142.168,152.37 C141.488,152.37 140.807,151.69 140.807,151.011 L140.807,85.841 C140.807,85.063 141.488,84.48 142.168,84.48 L173.052,84.48 C173.052,84.48 174.414,84.287 175.578,85.452 L181.114,90.988 C182.278,92.153 182.086,93.707 182.086,93.707 L182.086,118.377 L182.086,118.377 Z" id="Fill-7733" fill="#FFFFFF" sketch:type="MSShapeGroup"></path>
                <path d="M209.958,98.758 C209.862,98.758 209.57,98.758 209.375,99.05 L207.725,100.603 C207.433,100.992 207.433,101.381 207.433,101.381 L207.433,136.053 C207.433,136.248 207.531,136.442 207.725,136.733 L209.083,138.093 L220.349,138.093 L221.71,136.733 C222.001,136.442 222.001,136.248 222.001,136.053 L222.001,101.381 C222.001,101.381 222.099,100.992 221.71,100.603 L220.157,99.05 C219.866,98.758 219.574,98.758 219.476,98.758 L209.958,98.758 L209.958,98.758 Z M236.278,143.338 C236.278,143.338 236.473,144.697 235.306,145.862 L229.772,151.302 C228.605,152.468 227.344,152.37 227.344,152.37 L202.189,152.37 C202.189,152.37 200.828,152.468 199.664,151.302 L194.224,145.862 C193.057,144.697 193.155,143.338 193.155,143.338 L193.155,93.513 C193.155,93.513 193.057,92.153 194.224,90.988 L199.664,85.549 C200.828,84.287 202.189,84.48 202.189,84.48 L227.247,84.48 C227.247,84.48 228.605,84.287 229.772,85.549 L235.306,90.988 C236.473,92.153 236.278,93.513 236.278,93.513 L236.278,143.338 L236.278,143.338 Z" id="Fill-7734" fill="#FFFFFF" sketch:type="MSShapeGroup"></path>
                <path d="M261.139,113.132 L271.337,113.132 C271.435,113.132 271.727,113.132 272.016,112.841 L273.572,111.287 C273.96,110.898 273.863,110.51 273.863,110.51 L273.863,101.381 C273.863,101.381 273.96,100.992 273.572,100.603 L272.016,99.05 C271.629,98.661 271.241,98.758 271.241,98.758 L261.139,98.758 L261.139,113.132 L261.139,113.132 Z M288.139,118.377 C288.139,118.377 288.334,119.737 287.167,120.902 L281.633,126.438 L281.341,126.632 L291.249,151.011 C291.443,151.69 290.568,152.37 289.887,152.37 L276.875,152.37 C276.096,152.37 275.417,151.69 275.125,151.011 L265.607,127.409 L261.139,127.409 L261.139,151.011 C261.139,151.69 260.556,152.37 259.779,152.37 L248.221,152.37 C247.542,152.37 246.863,151.69 246.863,151.011 L246.863,85.841 C246.863,85.063 247.542,84.48 248.221,84.48 L279.108,84.48 C279.108,84.48 280.466,84.287 281.633,85.452 L287.167,90.988 C288.334,92.153 288.139,93.707 288.139,93.707 L288.139,118.377 L288.139,118.377 Z" id="Fill-7735" fill="#FFFFFF" sketch:type="MSShapeGroup"></path>
                <path d="M128.622,238.711 L128.622,250.268 C128.622,250.948 127.942,251.628 127.261,251.628 L122.21,251.628 L122.21,267.555 C122.21,268.333 121.53,268.917 120.852,268.917 L109.292,268.917 C108.517,268.917 107.934,268.333 107.934,267.555 L107.934,251.628 L90.938,251.628 C90.938,251.628 89.577,251.725 88.413,250.559 L82.973,245.12 C81.806,243.955 81.904,242.595 81.904,242.595 L82,242.595 C82,242.595 81.904,242.499 81.904,242.401 L81.904,202.678 C81.904,201.998 82.584,201.318 83.362,201.318 L94.822,201.318 C95.599,201.318 96.182,201.998 96.182,202.678 L96.182,235.311 C96.182,235.506 96.28,235.699 96.474,235.991 L97.833,237.35 L107.934,237.35 L107.934,202.678 C107.934,201.9 108.517,201.318 109.292,201.318 L120.852,201.318 C121.53,201.318 122.21,201.9 122.21,202.678 L122.21,237.35 L127.261,237.35 C127.942,237.35 128.622,237.933 128.622,238.711" id="Fill-7736" fill="#FFFFFF" sketch:type="MSShapeGroup"></path>
                <path d="M170.577,217.149 L168.924,215.498 C168.632,215.303 168.438,215.206 168.246,215.206 L158.823,215.206 C158.628,215.206 158.434,215.303 158.145,215.498 L156.589,217.149 C156.201,217.44 156.201,217.829 156.201,217.829 L156.201,252.598 C156.201,252.696 156.297,252.988 156.589,253.182 L157.853,254.542 L169.215,254.542 L170.577,253.182 C170.769,252.988 170.866,252.696 170.866,252.598 L170.866,217.829 C170.866,217.829 170.866,217.44 170.577,217.149 L170.577,217.149 Z M185.047,209.962 C185.047,210.059 185.145,210.059 185.145,210.156 L185.145,259.884 C185.145,259.884 185.242,261.146 184.076,262.311 L178.636,267.848 C177.472,269.013 176.111,268.819 176.111,268.819 L150.956,268.819 C150.956,268.819 149.597,269.013 148.43,267.848 L142.994,262.409 C141.827,261.146 142.021,259.884 142.021,259.884 C142.021,259.786 141.924,259.689 141.924,259.689 L141.924,209.962 L142.021,209.962 C142.021,209.962 141.827,208.602 142.994,207.436 L148.43,201.998 C149.597,200.833 150.956,200.929 150.956,200.929 L176.111,200.929 C176.111,200.929 177.472,200.833 178.636,201.998 L184.076,207.436 C185.242,208.602 185.145,209.962 185.145,209.962 L185.047,209.962 L185.047,209.962 Z" id="Fill-7737" fill="#FFFFFF" sketch:type="MSShapeGroup"></path>
                <path d="M244.776,238.711 L244.776,250.268 C244.776,250.948 244.096,251.628 243.417,251.628 L238.368,251.628 L238.368,267.555 C238.368,268.333 237.687,268.917 237.006,268.917 L225.45,268.917 C224.671,268.917 224.088,268.333 224.088,267.555 L224.088,251.628 L207.092,251.628 C207.092,251.628 205.733,251.725 204.567,250.559 L199.127,245.12 C197.963,243.955 198.06,242.595 198.06,242.595 L198.158,242.595 C198.158,242.595 198.06,242.499 198.06,242.401 L198.06,202.678 C198.06,201.998 198.741,201.318 199.516,201.318 L210.978,201.318 C211.753,201.318 212.337,201.998 212.337,202.678 L212.337,235.311 C212.337,235.506 212.434,235.699 212.628,235.991 L213.99,237.35 L224.088,237.35 L224.088,202.678 C224.088,201.9 224.671,201.318 225.45,201.318 L237.006,201.318 C237.687,201.318 238.368,201.9 238.368,202.678 L238.368,237.35 L243.417,237.35 C244.096,237.35 244.776,237.933 244.776,238.711" id="Fill-7738" fill="#FFFFFF" sketch:type="MSShapeGroup"></path>
            </g>
            <path d="M355.325,243.948 C355.325,295.256 313.732,336.847 262.425,336.847 C211.118,336.847 169.526,295.256 169.526,243.948 C169.526,192.641 211.118,151.049 262.425,151.049 C313.732,151.049 355.325,192.641 355.325,243.948" id="Fill-3-Copy-5" fill="#FCC240" sketch:type="MSShapeGroup"></path>
            <path d="M550.823,431.058 C550.823,482.366 509.23,523.958 457.923,523.958 C406.617,523.958 365.024,482.366 365.024,431.058 C365.024,379.752 406.617,338.159 457.923,338.159 C509.23,338.159 550.823,379.752 550.823,431.058" id="Fill-3876" fill="#D2A854" sketch:type="MSShapeGroup"></path>
            <path d="M547.646111,455.234001 L503.794922,411.382812 L478.777058,419.184285 L487.19043,427.597656 L488.193507,431.646632 L471.262695,414.71582 L447.696639,419.636093 L439.442383,411.381836 L432.576839,421.277035 L422.514648,411.214844 L411.27676,451.570705 L480.820879,521.114825 C513.303326,512.881169 538.964031,487.535585 547.646111,455.234001 Z" id="Path-7858" fill="#B99245" sketch:type="MSShapeGroup"></path>
            <path d="M439.414,411.44 L439.414,451.698 C439.414,452.118 439.053,452.538 438.574,452.538 L429.093,452.538 C428.614,452.538 428.193,452.118 428.013,451.698 L420.694,431.659 L420.694,451.698 C420.694,452.118 420.274,452.538 419.854,452.538 L412.714,452.538 C412.234,452.538 411.874,452.118 411.874,451.698 L411.874,411.44 C411.874,410.96 412.234,410.6 412.714,410.6 L421.654,410.6 C422.074,410.6 422.374,410.9 422.494,411.44 L422.554,411.44 L430.474,434.598 L430.593,435.259 L430.593,411.44 C430.593,410.96 431.013,410.6 431.433,410.6 L438.574,410.6 C439.053,410.6 439.414,410.96 439.414,411.44" id="Fill-5305" fill="#FFFFFF" sketch:type="MSShapeGroup"></path>
            <path d="M456.033,419.479 C455.973,419.479 455.793,419.479 455.673,419.66 L454.654,420.62 C454.473,420.86 454.473,421.1 454.473,421.1 L454.473,442.518 C454.473,442.639 454.533,442.759 454.654,442.938 L455.494,443.778 L462.453,443.778 L463.292,442.938 C463.473,442.759 463.473,442.639 463.473,442.518 L463.473,421.1 C463.473,421.1 463.533,420.86 463.292,420.62 L462.333,419.66 C462.153,419.479 461.973,419.479 461.914,419.479 L456.033,419.479 L456.033,419.479 Z M472.292,447.018 C472.292,447.018 472.413,447.858 471.693,448.579 L468.273,451.938 C467.552,452.659 466.773,452.598 466.773,452.598 L451.234,452.598 C451.234,452.598 450.394,452.659 449.673,451.938 L446.314,448.579 C445.593,447.858 445.654,447.018 445.654,447.018 L445.654,416.24 C445.654,416.24 445.593,415.399 446.314,414.68 L449.673,411.32 C450.394,410.54 451.234,410.66 451.234,410.66 L466.712,410.66 C466.712,410.66 467.552,410.54 468.273,411.32 L471.693,414.68 C472.413,415.399 472.292,416.24 472.292,416.24 L472.292,447.018 L472.292,447.018 Z" id="Fill-5306" fill="#FFFFFF" sketch:type="MSShapeGroup"></path>
            <path d="M504.152,411.68 L504.152,418.761 C504.152,419.239 503.732,419.6 503.251,419.6 L495.632,419.6 L495.632,451.878 C495.572,452.299 495.212,452.598 494.792,452.598 L487.712,452.598 C487.292,452.598 486.933,452.299 486.873,451.878 L486.873,419.6 L479.253,419.6 C478.773,419.6 478.353,419.239 478.353,418.761 L478.353,411.68 C478.353,411.2 478.773,410.78 479.253,410.78 L503.251,410.78 C503.732,410.78 504.152,411.2 504.152,411.68" id="Fill-5307" fill="#FFFFFF" sketch:type="MSShapeGroup"></path>
            <path d="M355.325,243.948 C355.325,295.256 313.732,336.847 262.425,336.847 C211.118,336.847 169.526,295.256 169.526,243.948 C169.526,192.641 211.118,151.049 262.425,151.049 C313.732,151.049 355.325,192.641 355.325,243.948" id="Fill-3-Copy-3" fill="#FCC240" sketch:type="MSShapeGroup"></path>
            <path d="M355.324726,595.940937 L337.063477,577.679688 L315.558002,584.151752 L307.910156,576.503906 L300.721216,586.122583 L290.982422,576.383789 L282.388184,584.412598 L273.988281,576.012695 L267.161354,587.354713 L256.254883,576.448242 L248.736001,587.9694 L240.6875,579.920898 L217.757812,584.560547 L209.035156,576.328125 L189.631836,580.188477 L185.985022,617.917639 L256.978366,688.910983 C258.780614,689.01518 260.596639,689.068 262.425,689.068 C313.732,689.068 355.325,647.476 355.325,596.169 C355.325,596.09294 355.324909,596.016901 355.324726,595.940884 Z" id="Path-5192" fill="#B99245" sketch:type="MSShapeGroup"></path>
            <path d="M209.056,576.61 L209.056,583.75 C209.056,584.05 208.876,584.349 208.576,584.47 L208.576,584.59 L194.356,584.59 L194.356,592.329 L204.976,592.329 C205.456,592.329 205.816,592.689 205.816,593.169 L205.816,600.309 C205.816,600.609 205.636,600.909 205.396,601.029 L205.396,601.149 L194.356,601.149 L194.356,616.868 C194.356,617.348 193.997,617.708 193.517,617.708 L186.377,617.708 C185.897,617.708 185.537,617.348 185.537,616.868 L185.537,576.61 C185.537,576.13 185.897,575.77 186.377,575.77 L208.216,575.77 C208.636,575.77 209.056,576.13 209.056,576.61" id="Fill-3870" fill="#FFFFFF" sketch:type="MSShapeGroup"></path>
            <path d="M225.256,584.59 C225.196,584.59 225.016,584.59 224.896,584.77 L223.876,585.729 C223.696,585.97 223.696,586.21 223.696,586.21 L223.696,607.629 C223.696,607.749 223.756,607.869 223.876,608.049 L224.716,608.888 L231.676,608.888 L232.516,608.049 C232.695,607.869 232.695,607.749 232.695,607.629 L232.695,586.21 C232.695,586.21 232.755,585.97 232.516,585.729 L231.556,584.77 C231.376,584.59 231.196,584.59 231.136,584.59 L225.256,584.59 L225.256,584.59 Z M241.515,612.129 C241.515,612.129 241.635,612.969 240.915,613.688 L237.495,617.048 C236.775,617.768 235.996,617.708 235.996,617.708 L220.456,617.708 C220.456,617.708 219.616,617.768 218.896,617.048 L215.536,613.688 C214.816,612.969 214.876,612.129 214.876,612.129 L214.876,581.35 C214.876,581.35 214.816,580.51 215.536,579.79 L218.896,576.43 C219.616,575.65 220.456,575.77 220.456,575.77 L235.936,575.77 C235.936,575.77 236.775,575.65 237.495,576.43 L240.915,579.79 C241.635,580.51 241.515,581.35 241.515,581.35 L241.515,612.129 L241.515,612.129 Z" id="Fill-3871" fill="#FFFFFF" sketch:type="MSShapeGroup"></path>
            <path d="M274.274,612.129 C274.274,612.129 274.395,612.969 273.674,613.688 L270.314,617.048 C269.595,617.768 268.755,617.708 268.755,617.708 L253.215,617.648 C253.215,617.648 252.375,617.768 251.655,617.048 L248.295,613.688 C247.576,612.969 247.636,612.129 247.636,612.129 L247.695,612.129 L247.636,612.009 L247.636,576.61 C247.636,576.13 248.056,575.77 248.476,575.77 L255.615,575.77 C256.095,575.77 256.455,576.13 256.455,576.61 L256.455,607.629 C256.455,607.688 256.515,607.869 256.635,608.049 L257.475,608.888 L264.435,608.888 L265.275,608.049 C265.455,607.869 265.455,607.688 265.515,607.629 L265.515,576.61 C265.515,576.13 265.875,575.77 266.355,575.77 L273.435,575.77 C273.915,575.77 274.274,576.13 274.274,576.61 L274.274,612.129" id="Fill-3872" fill="#FFFFFF" sketch:type="MSShapeGroup"></path>
            <path d="M308.054,576.55 L308.054,616.808 C308.054,617.228 307.694,617.648 307.214,617.648 L297.734,617.648 C297.254,617.648 296.834,617.228 296.654,616.808 L289.334,596.769 L289.334,616.808 C289.334,617.228 288.915,617.648 288.495,617.648 L281.355,617.648 C280.875,617.648 280.515,617.228 280.515,616.808 L280.515,576.55 C280.515,576.07 280.875,575.71 281.355,575.71 L290.294,575.71 C290.714,575.71 291.015,576.011 291.134,576.55 L291.194,576.55 L299.114,599.709 L299.234,600.369 L299.234,576.55 C299.234,576.07 299.654,575.71 300.074,575.71 L307.214,575.71 C307.694,575.71 308.054,576.07 308.054,576.55" id="Fill-3873" fill="#FFFFFF" sketch:type="MSShapeGroup"></path>
            <path d="M323.054,584.59 L323.054,608.888 L329.894,608.888 L330.733,608.049 C330.854,607.869 330.914,607.749 330.914,607.629 L330.914,586.21 C330.914,586.21 330.914,585.97 330.733,585.79 L329.714,584.77 C329.594,584.59 329.414,584.59 329.293,584.59 L323.054,584.59 L323.054,584.59 Z M339.073,613.688 L335.713,617.048 C334.993,617.768 334.153,617.708 334.153,617.708 L315.074,617.708 C314.594,617.708 314.234,617.348 314.234,616.868 L314.234,576.61 C314.234,576.13 314.594,575.77 315.074,575.77 L334.153,575.77 C334.153,575.77 335.053,575.77 335.713,576.43 L339.073,579.79 C339.733,580.45 339.733,581.35 339.733,581.35 L339.733,612.129 C339.733,612.129 339.793,612.969 339.073,613.688 L339.073,613.688 Z" id="Fill-3874" fill="#FFFFFF" sketch:type="MSShapeGroup"></path>
            <path d="M355.325,243.948 C355.325,295.256 313.732,336.847 262.425,336.847 C211.118,336.847 169.526,295.256 169.526,243.948 C169.526,192.641 211.118,151.049 262.425,151.049 C313.732,151.049 355.325,192.641 355.325,243.948" id="Fill-3-Copy-4" fill="#FCC240" sketch:type="MSShapeGroup"></path>
            <g id="Group" sketch:type="MSLayerGroup" transform="translate(169.000000, 151.000000)">
                <path d="M186.325,92.948 C186.325,144.256 144.732,185.847 93.425,185.847 C42.118,185.847 0.526,144.256 0.526,92.948 C0.526,41.641 42.118,0.049 93.425,0.049 C144.732,0.049 186.325,41.641 186.325,92.948" id="Fill-3-Copy" fill="#D2A854" sketch:type="MSShapeGroup"></path>
                <path id="Path-1973" stroke="#979797" sketch:type="MSShapeGroup" d=""></path>
                <path d="M102.395108,185.419522 L30.9658203,113.990234 L36.6816406,90.4306641 L40.265625,76.4658203 L53.7896002,74.7466315 L68.7978516,89.7548828 L72.8808594,87.3007812 L82.1631016,72.7451328 L99.7470703,90.3291016 L109.052734,77.7900391 L121.40407,73.3982103 L133.269531,85.2636719 L156.522936,73.5112174 L185.809073,102.797355 C181.200502,146.53091 146.248183,181.218175 102.395108,185.419522 Z" id="Path-1974" fill="#B99245" sketch:type="MSShapeGroup"></path>
                <path d="M39.456,90.189 L45.635,90.189 C45.635,90.189 45.876,90.249 46.115,90.009 L47.135,89.049 C47.315,88.808 47.315,88.569 47.315,88.569 L47.315,82.929 C47.315,82.929 47.315,82.689 47.135,82.51 L46.115,81.489 C45.876,81.309 45.635,81.309 45.635,81.309 L39.456,81.309 L39.456,90.189 L39.456,90.189 Z M56.135,93.369 L56.075,93.428 L56.135,93.428 C56.135,93.428 56.195,94.268 55.475,94.989 L52.115,98.408 C51.395,99.129 50.555,99.009 50.555,99.009 L39.456,99.009 L39.456,113.588 C39.456,114.008 39.036,114.428 38.556,114.428 L31.476,114.428 C30.996,114.428 30.636,114.008 30.636,113.588 L30.636,73.33 C30.636,72.849 30.996,72.489 31.476,72.489 L50.555,72.489 C50.555,72.489 51.395,72.37 52.115,73.09 L55.475,76.51 C56.195,77.229 56.135,78.069 56.135,78.069 L56.135,93.369 L56.135,93.369 Z" id="Fill-1760" fill="#FFFFFF" sketch:type="MSShapeGroup"></path>
                <path d="M81.035,100.688 L77.435,88.388 L73.775,100.688 L81.035,100.688 L81.035,100.688 Z M93.694,113.648 C93.814,114.068 93.274,114.488 92.794,114.488 L85.954,114.488 C85.474,114.488 85.054,114.068 84.875,113.648 L83.435,108.788 L71.375,108.788 L69.935,113.648 C69.755,114.068 69.335,114.488 68.855,114.488 L62.015,114.488 C61.535,114.488 60.995,114.068 61.115,113.648 L72.995,73.449 L72.995,73.389 C73.235,72.849 73.415,72.55 73.835,72.55 L80.975,72.55 C81.395,72.55 81.634,72.849 81.814,73.389 L81.814,73.449 C85.774,86.829 89.734,100.268 93.694,113.648 L93.694,113.648 Z" id="Fill-1761" fill="#FFFFFF" sketch:type="MSShapeGroup"></path>
                <path d="M112.895,99.129 C112.415,99.129 112.055,98.709 112.055,98.289 L112.055,91.149 C112.055,90.669 112.415,90.308 112.895,90.308 L124.774,90.308 C125.254,90.308 125.674,90.669 125.674,91.149 L125.674,109.388 L125.614,109.388 C125.554,109.688 125.374,110.108 125.014,110.468 L121.654,113.828 C120.934,114.548 120.094,114.488 120.094,114.488 L104.555,114.488 C104.555,114.488 103.715,114.548 102.995,113.828 L99.635,110.468 C98.915,109.748 99.035,108.908 99.035,108.908 L98.975,108.848 L98.975,78.13 L99.035,78.13 C99.035,78.13 98.915,77.289 99.635,76.569 L102.995,73.21 C103.715,72.489 104.555,72.55 104.555,72.55 L120.094,72.55 C120.094,72.55 120.934,72.489 121.654,73.21 L125.014,76.569 C125.734,77.289 125.674,78.13 125.674,78.13 L125.614,78.13 L125.674,78.189 L125.674,84.549 C125.674,84.969 125.254,85.389 124.774,85.389 L117.694,85.389 C117.214,85.389 116.854,84.969 116.854,84.549 L116.854,82.989 C116.854,82.989 116.854,82.749 116.674,82.569 L115.654,81.55 C115.534,81.369 115.354,81.369 115.234,81.369 L109.415,81.369 C109.294,81.369 109.175,81.369 108.995,81.55 L108.035,82.569 C107.795,82.749 107.795,82.989 107.795,82.989 L107.795,104.408 C107.854,104.528 107.854,104.648 108.035,104.828 L108.814,105.668 L115.834,105.668 L116.674,104.828 C116.794,104.648 116.854,104.528 116.854,104.408 L116.854,99.129 L112.895,99.129" id="Fill-1762" fill="#FFFFFF" sketch:type="MSShapeGroup"></path>
                <path d="M141.634,89.109 L152.254,89.109 C152.734,89.109 153.094,89.469 153.094,89.949 L153.094,97.089 C153.094,97.568 152.734,97.928 152.254,97.928 L141.634,97.928 L141.634,105.668 L155.494,105.668 C155.914,105.668 156.334,106.028 156.334,106.509 L156.334,113.648 C156.334,114.128 155.914,114.488 155.494,114.488 L133.655,114.488 C133.175,114.488 132.815,114.128 132.815,113.648 L132.815,73.389 C132.815,72.91 133.175,72.55 133.655,72.55 L155.494,72.55 C155.914,72.55 156.334,72.91 156.334,73.389 L156.334,80.529 C156.334,81.01 155.914,81.369 155.494,81.369 L141.634,81.369 L141.634,89.109" id="Fill-1763" fill="#FFFFFF" sketch:type="MSShapeGroup"></path>
            </g>
        </g>
    </g>
</svg>